<?xml version="1.0" encoding="UTF-8" standalone="no"?>
<!-- Created with Inkscape (http://www.inkscape.org/) -->

<svg
   xmlns:dc="http://purl.org/dc/elements/1.1/"
   xmlns:cc="http://creativecommons.org/ns#"
   xmlns:rdf="http://www.w3.org/1999/02/22-rdf-syntax-ns#"
   xmlns:svg="http://www.w3.org/2000/svg"
   xmlns="http://www.w3.org/2000/svg"
   xmlns:sodipodi="http://sodipodi.sourceforge.net/DTD/sodipodi-0.dtd"
   xmlns:inkscape="http://www.inkscape.org/namespaces/inkscape"
   width="140mm"
   height="140mm"
   viewBox="0 0 140 140"
   version="1.1"
   id="svg6482"
   inkscape:version="0.92.3 (2405546, 2018-03-11)"
   sodipodi:docname="empty.svg">
  <defs
     id="defs6476" />
  <sodipodi:namedview
     id="base"
     pagecolor="#ffffff"
     bordercolor="#666666"
     borderopacity="1.0"
     inkscape:pageopacity="0.0"
     inkscape:pageshadow="2"
     inkscape:zoom="0.98994949"
     inkscape:cx="120.08766"
     inkscape:cy="277.15729"
     inkscape:document-units="mm"
     inkscape:current-layer="layer1"
     showgrid="false"
     inkscape:window-width="1920"
     inkscape:window-height="1052"
     inkscape:window-x="1920"
     inkscape:window-y="0"
     inkscape:window-maximized="1" />
  <metadata
     id="metadata6479">
    <rdf:RDF>
      <cc:Work
         rdf:about="">
        <dc:format>image/svg+xml</dc:format>
        <dc:type
           rdf:resource="http://purl.org/dc/dcmitype/StillImage" />
        <dc:title></dc:title>
      </cc:Work>
    </rdf:RDF>
  </metadata>
  <g
     inkscape:label="Calque 1"
     inkscape:groupmode="layer"
     id="layer1"
     transform="translate(0,-157)">
    <g
       id="g4465-7-3"
       transform="matrix(2.0694401,0,0,2.0908041,-594.93555,189.68262)">
      <path
         transform="matrix(0.46763504,0,0,0.4778157,217.29475,-23.550159)"
         d="m 283.09728,126.66679 -13.52325,14.80151 -17.14553,10.39201 -19.37879,5.1406 -20.04208,-0.52726 -19.08169,-6.15241 -16.57542,-11.27913 -12.72629,-15.49208 -7.84617,-18.44995 -2.3304,-19.913119 3.37418,-19.763047 8.8054,-18.011888 13.52325,-14.801513 17.14553,-10.392009 19.37879,-5.140604 20.04208,0.527261 19.08169,6.15241 16.57542,11.279128 12.72629,15.492079 7.84617,18.449952 2.33039,19.913121 -3.37418,19.763049 z"
         inkscape:randomized="0"
         inkscape:rounded="0"
         inkscape:flatsided="true"
         sodipodi:arg2="0.74029995"
         sodipodi:arg1="0.59750028"
         sodipodi:r2="69.721992"
         sodipodi:r1="70.438957"
         sodipodi:cy="87.039406"
         sodipodi:cx="224.86226"
         sodipodi:sides="22"
         id="path3877-6-9-9-6-3"
         style="fill:#333333;stroke-width:0.06505781"
         sodipodi:type="star" />
      <path
         transform="matrix(0.46763504,0,0,0.4778157,216.60349,-23.550159)"
         d="m 280.73812,126.45232 -13.52325,14.80152 -17.14554,10.39201 -19.37878,5.1406 -20.04208,-0.52726 -19.0817,-6.15241 -16.57541,-11.27913 -12.7263,-15.49208 -7.84617,-18.44995 -2.33039,-19.913121 3.37418,-19.763047 8.8054,-18.011888 13.52325,-14.801514 17.14553,-10.392008 19.37879,-5.140604 20.04208,0.52726 19.08169,6.152411 16.57542,11.279128 12.72629,15.492078 7.84617,18.449953 2.33039,19.91312 -3.37418,19.763052 z"
         inkscape:randomized="0"
         inkscape:rounded="0"
         inkscape:flatsided="true"
         sodipodi:arg2="0.74029995"
         sodipodi:arg1="0.59750028"
         sodipodi:r2="69.721992"
         sodipodi:r1="70.438957"
         sodipodi:cy="86.824944"
         sodipodi:cx="222.5031"
         sodipodi:sides="22"
         id="path3877-9-7-27-6"
         style="fill:#374548;fill-opacity:1;stroke-width:0.06505781"
         sodipodi:type="star" />
      <path
         transform="matrix(0.46763504,0,0,0.4778157,217.29475,-23.550159)"
         d="m 268.48384,118.11362 -10.67758,11.68686 -13.53763,8.20524 -15.30095,4.05888 -15.82467,-0.41631 -15.06637,-4.85778 -13.08748,-8.90568 -10.04833,-12.23211 -6.19512,-14.56757 -1.84001,-15.722845 2.66416,-15.60435 6.95249,-14.221684 10.67758,-11.686862 13.53764,-8.20524 15.30094,-4.058878 15.82467,0.416311 15.06637,4.857771 13.08749,8.905685 10.04833,12.232113 6.19511,14.567567 1.84002,15.722844 -2.66416,15.604348 z"
         inkscape:randomized="0"
         inkscape:rounded="0"
         inkscape:flatsided="true"
         sodipodi:arg2="0.74029995"
         sodipodi:arg1="0.59750028"
         sodipodi:r2="55.050537"
         sodipodi:r1="55.616634"
         sodipodi:cy="86.824944"
         sodipodi:cx="222.5031"
         sodipodi:sides="22"
         id="path3877-4-0-2-15-1"
         style="fill:#f2f2f2;stroke-width:0.05136783"
         sodipodi:type="star" />
    </g>
  </g>
</svg>
