<?xml version="1.0" encoding="UTF-8" standalone="no"?>
<svg
   xmlns:dc="http://purl.org/dc/elements/1.1/"
   xmlns:cc="http://creativecommons.org/ns#"
   xmlns:rdf="http://www.w3.org/1999/02/22-rdf-syntax-ns#"
   xmlns:svg="http://www.w3.org/2000/svg"
   xmlns="http://www.w3.org/2000/svg"
   xmlns:sodipodi="http://sodipodi.sourceforge.net/DTD/sodipodi-0.dtd"
   xmlns:inkscape="http://www.inkscape.org/namespaces/inkscape"
   width="2222"
   height="2500"
   viewBox="0 0 256 288"
   preserveAspectRatio="xMidYMid"
   version="1.1"
   id="svg8"
   sodipodi:docname="J.svg"
   inkscape:version="0.92.3 (2405546, 2018-03-11)">
  <metadata
     id="metadata14">
    <rdf:RDF>
      <cc:Work
         rdf:about="">
        <dc:format>image/svg+xml</dc:format>
        <dc:type
           rdf:resource="http://purl.org/dc/dcmitype/StillImage" />
        <dc:title></dc:title>
      </cc:Work>
    </rdf:RDF>
  </metadata>
  <defs
     id="defs12" />
  <sodipodi:namedview
     pagecolor="#ffffff"
     bordercolor="#666666"
     borderopacity="1"
     objecttolerance="10"
     gridtolerance="10"
     guidetolerance="10"
     inkscape:pageopacity="0"
     inkscape:pageshadow="2"
     inkscape:window-width="1920"
     inkscape:window-height="960"
     id="namedview10"
     showgrid="false"
     inkscape:zoom="0.1888"
     inkscape:cx="3.3472733"
     inkscape:cy="1414.8675"
     inkscape:window-x="0"
     inkscape:window-y="27"
     inkscape:window-maximized="1"
     inkscape:current-layer="svg8" />
  <path
     d="M255.987 85.672c-.002-4.843-1.037-9.122-3.129-12.794-2.055-3.612-5.134-6.638-9.262-9.032-34.081-19.67-68.195-39.28-102.264-58.97-9.185-5.307-18.091-5.114-27.208.27-13.565 8.008-81.481 46.956-101.719 58.689C4.071 68.665.015 76.056.013 85.663 0 125.221.013 164.777 0 204.336c.002 4.736.993 8.932 2.993 12.55 2.056 3.72 5.177 6.83 9.401 9.278 20.239 11.733 88.164 50.678 101.726 58.688 9.121 5.387 18.027 5.579 27.215.27 34.07-19.691 68.186-39.3 102.272-58.97 4.224-2.447 7.345-5.559 9.401-9.276 1.997-3.618 2.99-7.814 2.992-12.551 0 0 0-79.094-.013-118.653"
     fill="#A9B9CB"
     id="path2"
     style="fill:#e5ff80" />
  <path
     d="M141.101 5.134c-9.17-5.294-18.061-5.101-27.163.269C100.395 13.39 32.59 52.237 12.385 63.94 4.064 68.757.015 76.129.013 85.711 0 125.166.013 164.62 0 204.076c.002 4.724.991 8.909 2.988 12.517 2.053 3.711 5.169 6.813 9.386 9.254a9008.51 9008.51 0 0 0 20.159 11.62L219.625 50.375c-26.178-15.074-52.363-30.136-78.524-45.241"
     fill="#7F8B99"
     id="path4"
     style="fill:#88aa00" />
  <text
     xml:space="preserve"
     style="font-style:normal;font-weight:normal;font-size:4.6084609px;line-height:1.25;font-family:sans-serif;letter-spacing:0px;word-spacing:0px;fill:#000000;fill-opacity:1;stroke:none;stroke-width:0.11521152"
     x="-20.747837"
     y="-85.446671"
     id="text3751"><tspan
       sodipodi:role="line"
       id="tspan3749"
       x="-20.747837"
       y="-81.369263"
       style="stroke-width:0.11521152" /></text>
  <text
     xml:space="preserve"
     style="font-style:normal;font-weight:normal;font-size:18.00081825px;line-height:1.25;font-family:sans-serif;letter-spacing:0px;word-spacing:0px;fill:#4d4d4d;fill-opacity:1;stroke:none;stroke-width:0.4500204;"
     x="54.322121"
     y="231.89493"
     id="text3755"><tspan
       sodipodi:role="line"
       id="tspan3753"
       x="54.322121"
       y="231.89493"
       style="font-style:normal;font-variant:normal;font-weight:normal;font-stretch:normal;font-size:300.01361084px;font-family:Dyuthi;-inkscape-font-specification:Dyuthi;fill:#4d4d4d;stroke-width:0.4500204;">J</tspan></text>
</svg>
